<?xml version="1.0" encoding="UTF-8" standalone="no"?>
<svg
   xmlns:dc="http://purl.org/dc/elements/1.1/"
   xmlns:cc="http://creativecommons.org/ns#"
   xmlns:rdf="http://www.w3.org/1999/02/22-rdf-syntax-ns#"
   xmlns:svg="http://www.w3.org/2000/svg"
   xmlns="http://www.w3.org/2000/svg"
   xmlns:sodipodi="http://sodipodi.sourceforge.net/DTD/sodipodi-0.dtd"
   xmlns:inkscape="http://www.inkscape.org/namespaces/inkscape"
   height="847.30145"
   width="847.68243"
   inkscape:version="1.0 (6e3e5246a0, 2020-05-07)"
   sodipodi:docname="saliere-noire.svg"
   id="svg30"
   xml:space="preserve"
   enable-background="new 0 0 1000 1000"
   viewBox="0 0 847.68243 847.30145"
   y="0px"
   x="0px"
   version="1.1"><defs
   id="defs34" /><sodipodi:namedview
   fit-margin-bottom="0"
   fit-margin-right="0"
   fit-margin-left="0"
   fit-margin-top="0"
   inkscape:current-layer="svg30"
   inkscape:window-maximized="1"
   inkscape:window-y="27"
   inkscape:window-x="0"
   inkscape:cy="423.65074"
   inkscape:cx="423.84121"
   inkscape:zoom="0.67862504"
   showgrid="false"
   id="namedview32"
   inkscape:window-height="786"
   inkscape:window-width="1440"
   inkscape:pageshadow="2"
   inkscape:pageopacity="0"
   guidetolerance="10"
   gridtolerance="10"
   objecttolerance="10"
   borderopacity="1"
   bordercolor="#666666"
   pagecolor="#ffffff" />
<metadata
   id="metadata2"> Svg Vector Icons : http://www.onlinewebfonts.com/icon <rdf:RDF><cc:Work
     rdf:about=""><dc:format>image/svg+xml</dc:format><dc:type
       rdf:resource="http://purl.org/dc/dcmitype/StillImage" /><dc:title></dc:title></cc:Work></rdf:RDF></metadata>
<path
   style="stroke-width:0.1;fill:#000000"
   id="path4"
   d="m 530.4327,3.171645 c -5.54,1.98 -13.64,6.33 -18.19,9.49 -10.08,7.31 -356.97,409.750005 -362.31,420.420005 -10.28,19.96 -11.86,43.88 -4.15,64.24 l 3.76,9.88 -12.06,12.06 -12.06,12.06 -8.9,-4.55 c -12.85,-6.33 -36.959996,-6.13 -49.409996,0.4 -10.67,5.73 -47.44,41.11 -55.34,53.57 -26.49,41.9 -7.5099998,110.1 49.22,175.32 7.71,8.89 21.54,22.73 30.44,30.44 65.619996,56.93 135.589996,76.1 176.709996,48.03 13.64,-9.29 46.45,-43.49 52.18,-54.36 6.52,-12.26 6.72,-36.37 0.4,-49.22 l -4.55,-8.89 12.06,-12.06 12.06,-12.06 9.88,3.76 c 20.36,7.71 44.27,6.13 64.24,-4.15 11.86,-6.13 413.7,-353.02 421.21,-363.49 8.9,-12.45 13.05,-27.67 11.86,-42.89 -1.98,-24.51 1.19,-20.75 -133.62,-155.75 -100.41,-100.620005 -125.91,-125.130005 -134.41,-129.280005 -14.03,-6.91999996 -34.59,-8.11 -49.02,-2.97 z m 32.22,30.05 c 7.31,2.77 247.27,242.130005 250.83,250.430005 3.56,8.3 3.56,16.41 -0.39,26.29 l -3.16,7.91 h -260.92 -260.71 l 48.03,-55.94 c 26.49,-30.64 80.84,-93.69 120.77,-139.94 75.7,-88.160005 78.08,-90.330005 93.69,-90.530005 3.36,-0.2 8.69,0.79 11.86,1.78 z m -459.36,522.010005 c 6.13,3.16 184.81,181.45 188.37,187.97 3.56,6.72 3.56,16.01 0,22.93 -1.58,2.96 -12.06,14.43 -23.32,25.3 -23.32,22.93 -29.06,25.7 -51.19,23.92 -38.54,-3.16 -85.19,-30.44 -126.109996,-73.73 -43.68,-46.25 -66.81,-100.01 -57.32,-134.21 1.58,-5.93 7.12,-13.04 21.35,-27.47 10.48,-10.67 21.74,-21.15 24.91,-23.13 6.71,-4.15 16.79,-4.94 23.309996,-1.58 z" /><path
   style="stroke-width:0.1"
   id="path6"
   d="m 66.332704,664.93165 c -1.78,1.58 -3.16,4.74 -3.16,6.92 0,8.7 10.28,21.74 19.37,24.51 14.82,4.55 13.05,-21.35 -2.17,-30.64 -7.72,-4.74 -10.09,-4.94 -14.04,-0.79 z" /><path
   style="stroke-width:0.1"
   id="path8"
   d="m 103.6827,716.33165 c -6.129996,6.32 1.58,21.54 13.84,27.28 19.57,9.29 22.14,-13.05 2.96,-25.89 -7.7,-5.35 -12.45,-5.74 -16.8,-1.39 z" /><path
   style="stroke-width:0.1"
   id="path10"
   d="m 152.5127,757.04165 c -3.95,3.95 -2.77,8.9 3.56,16.21 10.48,11.86 26.29,14.03 28.86,3.95 3.16,-12.84 -23.13,-29.45 -32.42,-20.16 z" />
<path
   id="path96"
   d="m 293.53714,313.50663 c 1.82372,-2.05565 10.02293,-11.58638 18.22047,-21.1794 87.84,-102.79312 195.7032,-226.79194 209.04975,-240.322185 18.27274,-18.524244 24.25206,-21.648187 36.21179,-18.919134 8.32236,1.899051 29.37663,22.022943 155.13925,148.283729 88.60381,88.95476 100.14661,101.13181 101.84565,107.44156 1.99515,7.4094 1.3002,13.41241 -2.64613,22.85729 l -2.32967,5.57568 H 549.62478 290.2213 Z"
   style="fill:#000000;stroke-width:1.66113" /><path
   id="path98"
   d="M 295.52419,313.04409 C 308.05162,297.11806 486.64036,91.173187 515.33684,59.560678 c 16.34043,-18.000902 27.58473,-26.369664 35.43035,-26.369664 3.07533,0 8.62556,2.187545 13.41953,5.28911 9.09324,5.883094 232.0877,227.937206 242.97766,241.953086 7.87447,10.13476 8.70457,16.01853 4.08022,28.92059 l -2.82806,7.89037 H 550.31848 292.22041 Z"
   style="fill:#000000;stroke-width:1.66113" /><path
   id="path100"
   d="m 294.43221,314.33719 c 83.22775,-97.33794 129.67748,-151.17877 183.07787,-212.2093 51.81671,-59.220572 62.14193,-68.936876 73.25711,-68.936876 3.07744,0 8.62226,2.187057 13.41953,5.293103 9.11766,5.90334 232.15442,227.987093 242.98733,241.949093 7.86367,10.13508 8.69264,16.02481 4.07055,28.92059 l -2.82806,7.89037 H 550.18159 c -245.77752,0 -258.11505,-0.14023 -255.74938,-2.90698 z"
   style="fill:#000000;stroke-width:1.66113" /><path
   id="path102"
   d="m 294.33456,314.38422 c 10.97402,-13.76656 132.66395,-154.55563 188.48735,-218.070283 42.58626,-48.453746 45.97958,-52.008274 56.1339,-58.800886 8.61854,-5.765273 15.21216,-5.513751 25.23091,0.962465 9.28902,6.004517 236.6604,232.503384 244.65773,243.718884 6.05463,8.49107 6.65526,15.28753 2.40015,27.1594 l -2.82806,7.89037 h -258.1809 c -244.04454,0 -258.05606,-0.15659 -255.90108,-2.85995 z"
   style="fill:#000000;stroke-width:1.66113" /><path
   id="path104"
   d="m 267.03851,332.83636 c 5.09224,-6.6123 128.4884,-153.09681 174.1309,-206.71226 85.16288,-100.039212 95.56682,-110.614493 108.82115,-110.614493 3.52037,0 9.54601,2.407568 14.9274,5.964316 10.25389,6.776959 261.2406,262.413247 270.06852,275.071547 6.62254,9.49609 7.33671,17.26523 2.83014,30.78803 l -2.92281,8.77072 H 549.70782 c -270.90897,0 -285.05988,-0.16356 -282.66931,-3.26786 z"
   style="fill:#000000;stroke-width:1.85419" /></svg>
